<svg width="26" height="25" viewBox="0 0 26 25" fill="none" xmlns="http://www.w3.org/2000/svg">
<g opacity="0.4">
<path fill-rule="evenodd" clip-rule="evenodd" d="M8.78533 5.19L9.34312 3.97097C9.8391 2.88703 10.9233 2.18848 12.1095 2.18848H14.2115C15.3978 2.18848 16.4637 2.88703 16.9313 3.97097L17.4571 5.19H20.1254C21.7832 5.19 23.1096 6.53383 23.0879 8.19153L22.9438 19.1971C22.9221 20.8548 21.5606 22.1986 19.9027 22.1986H5.89442C4.23658 22.1986 2.91023 20.8548 2.93193 19.1971L3.076 8.19153C3.0977 6.53383 4.45924 5.19 6.11708 5.19H8.78533ZM12.0899 3.68924L14.1919 3.68924C14.785 3.68924 15.3179 4.03852 15.5518 4.58048L15.8147 5.19L10.4278 5.19L10.7067 4.58048C10.9547 4.03852 11.4967 3.68924 12.0899 3.68924ZM6.09743 6.69076C5.26851 6.69076 4.58774 7.36268 4.57689 8.19153L4.43282 19.1971C4.42197 20.026 5.08515 20.6979 5.91407 20.6979H19.9224C20.7513 20.6979 21.4321 20.026 21.4429 19.1971L21.587 8.19153C21.5978 7.36268 20.9347 6.69076 20.1057 6.69076L6.09743 6.69076Z" fill="black"/>
<path fill-rule="evenodd" clip-rule="evenodd" d="M15.7374 14.1945L20.0075 14.1945C21.6654 14.1945 23.0269 12.8506 23.0486 11.1929L23.0879 8.1914C23.1096 6.53371 21.7832 5.18988 20.1254 5.18988L6.11709 5.18988C4.45926 5.18988 3.09772 6.53371 3.07602 8.1914L3.03673 11.1929C3.01503 12.8506 4.34138 14.1945 5.99922 14.1945H10.2693C10.6075 14.7926 11.249 15.195 11.9897 15.195H13.9909C14.7316 15.195 15.3836 14.7926 15.7374 14.1945ZM20.1058 6.69064L6.09745 6.69064C5.26853 6.69064 4.58776 7.36256 4.57691 8.1914L4.53762 11.1929C4.52677 12.0218 5.18994 12.6937 6.01886 12.6937H10.0843C10.3177 11.8306 11.1096 11.1929 12.0421 11.1929H14.0433C14.9757 11.1929 15.7509 11.8306 15.9618 12.6937H20.0272C20.8561 12.6937 21.5369 12.0218 21.5477 11.1929L21.587 8.1914C21.5979 7.36256 20.9347 6.69064 20.1058 6.69064ZM12.0224 12.6937H14.0236C14.2999 12.6937 14.521 12.9177 14.5174 13.1939C14.5137 13.4702 14.2868 13.6942 14.0105 13.6942H12.0093C11.733 13.6942 11.512 13.4702 11.5156 13.1939C11.5192 12.9177 11.7461 12.6937 12.0224 12.6937Z" fill="black"/>
</g>
</svg>
