<svg width="26" height="25" viewBox="0 0 26 25" fill="none" xmlns="http://www.w3.org/2000/svg">
<g opacity="0.4">
<path fill-rule="evenodd" clip-rule="evenodd" d="M8.01858 2.40585C8.43304 2.40585 8.76462 2.74181 8.7592 3.15623L8.7461 4.15674L17.2511 4.15674L17.2642 3.15623C17.2697 2.74181 17.6101 2.40585 18.0245 2.40585C18.439 2.40585 18.7706 2.74181 18.7651 3.15623L18.752 4.15674H20.0028C21.6606 4.15674 22.987 5.50057 22.9653 7.15827L22.8081 19.1644C22.7864 20.8221 21.4249 22.1659 19.767 22.1659H5.75871C4.10088 22.1659 2.77452 20.8221 2.79623 19.1644L2.95339 7.15827C2.97509 5.50057 4.33663 4.15674 5.99447 4.15674H7.24521L7.25831 3.15623C7.26373 2.74181 7.60412 2.40585 8.01858 2.40585ZM17.2315 5.6575L17.2119 7.15827C17.2064 7.57269 17.538 7.90865 17.9525 7.90865C18.3669 7.90865 18.7073 7.57269 18.7127 7.15827L18.7324 5.6575H19.9831C20.8121 5.6575 21.4752 6.32942 21.4644 7.15827L21.4218 10.4099L4.41172 10.4099L4.45428 7.15827C4.46513 6.32942 5.1459 5.6575 5.97482 5.6575H7.22556L7.20592 7.15827C7.20049 7.57269 7.53208 7.90865 7.94654 7.90865C8.361 7.90865 8.70138 7.57269 8.70681 7.15827L8.72645 5.6575L17.2315 5.6575ZM4.39207 11.9107L4.29712 19.1644C4.28627 19.9932 4.94944 20.6651 5.77836 20.6651H19.7867C20.6156 20.6651 21.2964 19.9932 21.3072 19.1644L21.4022 11.9107L4.39207 11.9107Z" fill="black"/>
</g>
</svg>
