<svg width="23" height="23" viewBox="0 0 23 23" fill="none" xmlns="http://www.w3.org/2000/svg">
<path d="M11.5275 0.380707C5.45863 0.380707 0.456364 5.31792 0.376925 11.3863C0.297486 17.4547 5.17049 22.3919 11.2394 22.3919C17.3083 22.3919 22.3105 17.4547 22.39 11.3863C22.4694 5.31792 17.5964 0.380707 11.5275 0.380707ZM11.2574 21.0162C5.94693 21.0162 1.68324 16.6963 1.75275 11.3863C1.82226 6.07628 6.19905 1.75641 11.5095 1.75641C16.82 1.75641 21.0837 6.07628 21.0142 11.3863C20.9447 16.6963 16.5679 21.0162 11.2574 21.0162Z" fill="white"/>
<path d="M12.1611 4.50775H10.7852L10.6914 11.6716L14.964 16.0005L15.9496 15.0278L12.0748 11.1019L12.1611 4.50775Z" fill="white"/>
</svg>
