<svg width="25" height="25" viewBox="0 0 25 25" fill="none" xmlns="http://www.w3.org/2000/svg">
<g opacity="0.4">
<path fill-rule="evenodd" clip-rule="evenodd" d="M17.1884 9.62428C17.4853 9.33121 17.4916 8.85606 17.2023 8.563C16.9131 8.26993 16.4379 8.26993 16.1409 8.563L13.9828 10.693C13.5888 10.471 13.1328 10.3444 12.6456 10.3444C11.1258 10.3444 9.87768 11.5763 9.85779 13.096C9.83789 14.6156 11.0538 15.8476 12.5736 15.8476C14.0934 15.8476 15.3416 14.6156 15.3615 13.096C15.3678 12.6088 15.2472 12.1512 15.0303 11.7543L17.1884 9.62428ZM11.3588 13.096C11.3678 12.4052 11.9352 11.8452 12.626 11.8452C13.3168 11.8452 13.8695 12.4052 13.8605 13.096C13.8514 13.7867 13.2841 14.3467 12.5932 14.3467C11.9024 14.3467 11.3497 13.7867 11.3588 13.096Z" fill="black"/>
<path fill-rule="evenodd" clip-rule="evenodd" d="M12.7175 4.84158C8.15848 4.84158 4.41426 8.53711 4.35459 13.0958C4.32471 15.3782 5.22314 17.443 6.70156 18.938C6.99107 19.2308 6.98531 19.7059 6.68868 19.9992C6.39206 20.2925 5.9169 20.293 5.62738 20.0002C3.88195 18.2352 2.81839 15.7927 2.8537 13.0958C2.92422 7.70826 7.34921 3.34082 12.7372 3.34082C18.1252 3.34082 22.4358 7.70826 22.3653 13.0958C22.33 15.7893 21.2053 18.2291 19.4176 19.9936C19.1207 20.2866 18.6455 20.2866 18.3563 19.9936C18.0671 19.7005 18.0733 19.2254 18.3702 18.9324C19.8844 17.4378 20.8345 15.3753 20.8644 13.0958C20.9241 8.53711 17.2766 4.84158 12.7175 4.84158Z" fill="black"/>
</g>
</svg>
