<svg width="25" height="25" viewBox="0 0 25 25" fill="none" xmlns="http://www.w3.org/2000/svg">
<g opacity="0.4">
<path fill-rule="evenodd" clip-rule="evenodd" d="M10.1534 5.97295C9.2023 6.16656 8.29044 6.54287 7.47047 7.08596C6.22557 7.91049 5.24837 9.08243 4.66242 10.4536C4.07648 11.8247 3.90811 13.3335 4.17862 14.7891C4.44913 16.2447 5.14635 17.5817 6.18213 18.6312C7.21791 19.6806 8.54572 20.3952 9.99765 20.6848C11.4496 20.9743 12.9604 20.8257 14.3391 20.2578C15.7178 19.6898 16.9024 18.728 17.7432 17.494C18.297 16.6813 18.6852 15.7744 18.8912 14.8259L15.7919 14.8259C15.6628 15.1787 15.4898 15.5165 15.2756 15.8309C14.7703 16.5726 14.0583 17.1507 13.2296 17.492C12.4009 17.8334 11.4929 17.9227 10.6202 17.7487C9.74748 17.5747 8.9494 17.1451 8.32684 16.5143C7.70428 15.8836 7.28521 15.0799 7.12262 14.205C6.96003 13.3302 7.06123 12.4233 7.41341 11.5992C7.7656 10.7751 8.35295 10.0707 9.10119 9.57507C9.41834 9.36502 9.75837 9.19647 10.1128 9.07198L10.1534 5.97295ZM10.6766 4.3761C11.2266 4.31483 11.6701 4.76852 11.6628 5.32109L11.6105 9.31522C11.6033 9.86779 11.1377 10.3002 10.613 10.4805C10.3695 10.5642 10.1361 10.6789 9.91871 10.8229C9.41944 11.1536 9.02753 11.6236 8.79254 12.1735C8.55754 12.7234 8.49002 13.3285 8.59851 13.9123C8.70699 14.496 8.98662 15.0323 9.40202 15.4531C9.81742 15.874 10.3499 16.1606 10.9322 16.2768C11.5145 16.3929 12.1205 16.3333 12.6734 16.1055C13.2263 15.8777 13.7014 15.492 14.0386 14.9971C14.1854 14.7816 14.3032 14.5497 14.3901 14.3073C14.5773 13.785 15.0157 13.3252 15.5683 13.3252L19.5628 13.3252C20.1154 13.3252 20.5633 13.7745 20.4948 14.3236C20.3168 15.7513 19.7995 17.1253 18.9802 18.3278C17.9713 19.8086 16.5498 20.9628 14.8953 21.6443C13.2409 22.3258 11.4279 22.5042 9.68558 22.1567C7.94326 21.8093 6.34989 20.9517 5.10695 19.6924C3.86402 18.433 3.02734 16.8286 2.70274 15.0819C2.37813 13.3351 2.58017 11.5246 3.2833 9.87925C3.98643 8.23388 5.15908 6.82756 6.65295 5.83813C7.86606 5.03465 9.24674 4.53539 10.6766 4.3761Z" fill="black"/>
<path fill-rule="evenodd" clip-rule="evenodd" d="M20.9582 9.82387C20.8688 9.35567 20.7345 8.89655 20.5565 8.45294C20.1913 7.54247 19.6493 6.7152 18.9615 6.01835C18.2737 5.32151 17.4536 4.76874 16.548 4.39161C16.1068 4.20787 15.6494 4.06757 15.1824 3.972L15.1419 7.07125C15.2173 7.09798 15.292 7.12676 15.366 7.15757C15.9103 7.38424 16.4032 7.71648 16.8166 8.13532C17.23 8.55416 17.5558 9.0514 17.7753 9.59864C17.8052 9.67302 17.833 9.74812 17.8587 9.82387H20.9582ZM22.5487 10.3262C22.6028 10.8754 22.1432 11.3247 21.5905 11.3247H17.5958C17.0431 11.3247 16.6167 10.8648 16.4431 10.3425C16.4242 10.2854 16.4035 10.2289 16.3811 10.173C16.2346 9.80785 16.0172 9.47607 15.7414 9.1966C15.4655 8.91713 15.1366 8.69544 14.7734 8.54419C14.7178 8.52103 14.6616 8.4996 14.6048 8.4799C14.0847 8.29954 13.6305 7.86712 13.6377 7.31451L13.69 3.32009C13.6972 2.76748 14.1525 2.31376 14.701 2.37504C15.5396 2.46873 16.361 2.68035 17.1406 3.00499C18.2273 3.45754 19.2114 4.12086 20.0368 4.95708C20.8621 5.79329 21.5125 6.78602 21.9508 7.87858C22.2652 8.66232 22.466 9.48642 22.5487 10.3262Z" fill="black"/>
</g>
</svg>
