<svg width="25" height="25" viewBox="0 0 25 25" fill="none" xmlns="http://www.w3.org/2000/svg">
<g opacity="0.4">
<path d="M18.3202 15.0229C18.4041 15.1563 18.5267 15.2604 18.6687 15.329C19.7542 15.8533 20.4937 16.9697 20.4768 18.2622L20.4506 20.2634C20.4452 20.6779 20.7768 21.0138 21.1913 21.0138C21.6058 21.0138 21.9462 20.6779 21.9516 20.2634L21.9778 18.2622C22.0122 15.6374 19.912 13.5095 17.2869 13.5095V13.5095C17.1781 13.5095 17.1272 13.6498 17.2086 13.721C17.6392 14.0979 18.0142 14.5364 18.3202 15.0229Z" fill="black"/>
<path fill-rule="evenodd" clip-rule="evenodd" d="M7.26163 15.0103C5.46564 15.0103 3.99064 16.4661 3.96713 18.2619L3.94094 20.2629C3.93551 20.6773 3.59513 21.0133 3.18067 21.0133C2.76621 21.0133 2.43462 20.6773 2.44005 20.2629L2.46624 18.2619C2.5006 15.6372 4.65636 13.5095 7.28127 13.5095H13.2848C15.9097 13.5095 18.0098 15.6372 17.9754 18.2619L17.9493 20.2629C17.9438 20.6773 17.6034 21.0133 17.189 21.0133C16.7745 21.0133 16.4429 20.6773 16.4484 20.2629L16.4746 18.2619C16.4981 16.4661 15.0612 15.0103 13.2652 15.0103H7.26163Z" fill="black"/>
<path d="M15.2045 9.81575C15.2957 9.64657 15.439 9.51146 15.605 9.41455C16.3499 8.97987 16.8566 8.17626 16.8686 7.25679C16.8806 6.33731 16.395 5.5337 15.6615 5.09903C15.498 5.00212 15.3583 4.867 15.2715 4.69782C15.0289 4.22513 14.7191 3.79304 14.3543 3.41409C14.2973 3.35489 14.3366 3.25446 14.4193 3.25446V3.25446C16.63 3.25446 18.3986 5.04636 18.3696 7.25679C18.3407 9.46721 16.5252 11.2591 14.3146 11.2591V11.2591C14.2318 11.2591 14.1952 11.1587 14.2537 11.0995C14.6284 10.7205 14.9496 10.2884 15.2045 9.81575Z" fill="black"/>
<path fill-rule="evenodd" clip-rule="evenodd" d="M10.3323 9.75825C11.7139 9.75825 12.8486 8.63831 12.8667 7.2568C12.8848 5.87528 11.7794 4.75534 10.3978 4.75534C9.01616 4.75534 7.88146 5.87528 7.86338 7.2568C7.84529 8.63831 8.95066 9.75825 10.3323 9.75825ZM10.3127 11.2591C12.5233 11.2591 14.3388 9.46722 14.3677 7.2568C14.3966 5.04637 12.6281 3.25447 10.4174 3.25447C8.20682 3.25447 6.39131 5.04637 6.36237 7.2568C6.33344 9.46722 8.10204 11.2591 10.3127 11.2591Z" fill="black"/>
</g>
</svg>
