<svg width="25" height="25" viewBox="0 0 25 25" fill="none" xmlns="http://www.w3.org/2000/svg">
<g opacity="0.4">
<path d="M16.2525 5.72301C16.5488 5.72301 16.8396 5.63531 17.0883 5.47096L20.0059 3.54291C20.3412 3.32128 20.7834 3.5596 20.7782 3.95915L20.6569 13.2268C20.646 14.0557 19.9653 14.7276 19.1364 14.7276H18.1358L18.1161 16.2283H19.1167C20.7746 16.2283 22.1361 14.8845 22.1578 13.2268L22.2791 3.95915C22.3 2.36095 20.5312 1.40768 19.1897 2.2942L16.2721 4.22225L9.26795 4.22225C7.61011 4.22225 6.24857 5.56608 6.22687 7.22377L6.21378 8.22428H7.71467L7.72776 7.22377C7.73861 6.39493 8.41938 5.72301 9.2483 5.72301L16.2525 5.72301Z" fill="black"/>
<path fill-rule="evenodd" clip-rule="evenodd" d="M6.1349 19.0584C6.40382 18.8455 6.736 18.7295 7.07681 18.7295H15.0816C15.9105 18.7295 16.5912 18.0576 16.6021 17.2287L16.6807 11.2257C16.6915 10.3968 16.0284 9.72491 15.1994 9.72491H5.1935C4.36458 9.72491 3.68381 10.3968 3.67296 11.2257L3.5572 20.0689C3.55171 20.4884 4.03391 20.7216 4.36491 20.4595L6.1349 19.0584ZM7.05716 20.2302H15.0619C16.7198 20.2302 18.0813 18.8864 18.103 17.2287L18.1816 11.2257C18.2033 9.56798 16.8769 8.22415 15.2191 8.22415H5.21314C3.55531 8.22415 2.19377 9.56798 2.17207 11.2257L2.05631 20.0689C2.03434 21.7468 3.96315 22.6796 5.28717 21.6314L7.05716 20.2302Z" fill="black"/>
<path fill-rule="evenodd" clip-rule="evenodd" d="M6.38517 14.2272C6.39059 13.8127 6.731 13.4767 7.14549 13.4767H13.1495C13.564 13.4767 13.8956 13.8127 13.8902 14.2272C13.8847 14.6416 13.5443 14.9776 13.1298 14.9776H7.12584C6.71135 14.9776 6.37974 14.6416 6.38517 14.2272Z" fill="black"/>
</g>
</svg>
