<svg width="25" height="28" viewBox="0 0 25 28" fill="none" xmlns="http://www.w3.org/2000/svg">
<path fill-rule="evenodd" clip-rule="evenodd" d="M16.1183 18.9055H20.7068C21.4884 18.9055 22.1302 18.272 22.1404 17.4905C22.1453 17.1153 22.001 16.7554 21.7391 16.49L20.7516 15.4895C20.3812 15.1143 20.177 14.6053 20.1839 14.0746L20.2259 10.8721C20.2835 6.46774 16.7595 2.89734 12.3549 2.89734C7.9408 2.89734 4.3193 6.48235 4.27477 10.896L4.24294 14.0506C4.23745 14.5955 4.00999 15.1174 3.61311 15.4959L2.57053 16.4902C2.29297 16.755 2.1334 17.1196 2.12841 17.5007C2.11826 18.2765 2.73902 18.9055 3.51493 18.9055H8.11359C8.08465 21.1157 9.85312 22.9075 12.0636 22.9075C14.274 22.9075 16.0894 21.1157 16.1183 18.9055ZM19.6764 16.5507L20.5193 17.4047H3.77211L4.64168 16.5754C5.33622 15.913 5.73427 14.9996 5.74389 14.0461L5.77571 10.8915C5.81186 7.30845 8.75184 4.3981 12.3352 4.3981C15.911 4.3981 18.7718 7.29659 18.725 10.8721L18.6831 14.0746C18.6709 15.0033 19.0282 15.894 19.6764 16.5507ZM14.6174 18.9055H9.61448C9.59639 20.2869 10.7017 21.4067 12.0832 21.4067C13.4648 21.4067 14.5994 20.2869 14.6174 18.9055Z" fill="black"/>
</svg>
