<svg width="25" height="25" viewBox="0 0 25 25" fill="none" xmlns="http://www.w3.org/2000/svg">
<g opacity="0.4">
<path d="M6.40313 14.543C5.98867 14.543 5.64829 14.8789 5.64287 15.2934C5.63744 15.7078 5.96903 16.0437 6.38349 16.0437H12.3871C12.8015 16.0437 13.1419 15.7078 13.1473 15.2934C13.1527 14.8789 12.8212 14.543 12.4067 14.543H6.40313Z" fill="black"/>
<path fill-rule="evenodd" clip-rule="evenodd" d="M5.53679 4.28777C3.87895 4.28777 2.51741 5.63159 2.49571 7.28929L2.36474 17.2944C2.34304 18.9521 3.66939 20.2959 5.32723 20.2959H19.3355C20.9934 20.2959 22.3549 18.9521 22.3766 17.2944L22.5076 7.28929C22.5293 5.63159 21.2029 4.28777 19.5451 4.28777L5.53679 4.28777ZM19.5255 5.78853L5.51714 5.78853C4.68822 5.78853 4.00746 6.46044 3.99661 7.28929L3.98023 8.53992L20.9903 8.53992L21.0067 7.28929C21.0176 6.46044 20.3544 5.78853 19.5255 5.78853ZM3.86563 17.2944L3.96059 10.0407L20.9707 10.0407L20.8757 17.2944C20.8649 18.1232 20.1841 18.7951 19.3552 18.7951L5.34688 18.7951C4.51796 18.7951 3.85478 18.1232 3.86563 17.2944Z" fill="black"/>
</g>
</svg>
