<svg width="25" height="28" viewBox="0 0 25 28" fill="none" xmlns="http://www.w3.org/2000/svg">
<path fill-rule="evenodd" clip-rule="evenodd" d="M12.2148 11.4023C14.149 11.4023 15.7376 9.83443 15.7629 7.90031C15.7883 5.96619 14.2407 4.39827 12.3064 4.39827C10.3722 4.39827 8.78358 5.96619 8.75826 7.90031C8.73294 9.83443 10.2805 11.4023 12.2148 11.4023ZM12.1951 12.9032C14.9584 12.9032 17.2278 10.6633 17.2639 7.90031C17.3001 5.13728 15.0894 2.8974 12.3261 2.8974C9.56282 2.8974 7.29343 5.13728 7.25726 7.90031C7.22109 10.6633 9.43184 12.9032 12.1951 12.9032Z" fill="black"/>
<path fill-rule="evenodd" clip-rule="evenodd" d="M9.14392 16.6541C6.79532 16.6541 4.86648 18.5578 4.83574 20.9062L4.82264 21.9067C4.81721 22.3212 4.47683 22.6571 4.06237 22.6571C3.64791 22.6571 3.31632 22.3212 3.32175 21.9067L3.33485 20.9062C3.37644 17.729 5.98605 15.1533 9.16357 15.1533H15.1671C18.3447 15.1533 20.8868 17.729 20.8452 20.9062L20.8321 21.9067C20.8267 22.3212 20.4863 22.6571 20.0719 22.6571C19.6574 22.6571 19.3258 22.3212 19.3312 21.9067L19.3443 20.9062C19.3751 18.5578 17.4961 16.6541 15.1475 16.6541H9.14392Z" fill="black"/>
</svg>
