<svg width="11" height="12" viewBox="0 0 11 12" fill="none" xmlns="http://www.w3.org/2000/svg">
<path d="M10.2736 10.8332L7.26875 7.78874C7.91035 7.08664 8.31115 6.16092 8.32446 5.14387C8.35303 2.96 6.5994 1.18324 4.41533 1.18324C2.23125 1.18324 0.431087 2.96 0.402498 5.14389C0.373909 7.32777 2.12756 9.10453 4.31163 9.10453C5.32878 9.10453 6.25964 8.71588 6.9701 8.08352L9.97497 11.128C10.0151 11.1687 10.0682 11.1891 10.1216 11.1891C10.1749 11.1891 10.2285 11.1687 10.2698 11.128C10.3523 11.0466 10.354 10.9146 10.2736 10.8332ZM4.31709 8.6876C2.36307 8.6876 0.793876 7.09793 0.819456 5.14389C0.845036 3.18984 2.45585 1.60015 4.40987 1.60015C6.36389 1.60015 7.93308 3.18982 7.9075 5.14389C7.88192 7.09795 6.27111 8.6876 4.31709 8.6876Z" fill="#304858" stroke="#304858" stroke-width="0.500288"/>
</svg>
