<svg width="13" height="11" viewBox="0 0 13 11" fill="none" xmlns="http://www.w3.org/2000/svg">
<path d="M11.9336 4.26802L2.62747 0.385773C2.23542 0.222203 1.78914 0.294158 1.46282 0.573464C1.1365 0.852815 0.995915 1.28323 1.09596 1.69673L1.88606 4.96252H5.96379C6.15143 4.96252 6.30159 5.11463 6.29913 5.30228C6.29668 5.4899 6.14256 5.64203 5.9549 5.64203H1.87716L1.00157 8.9078C0.89069 9.32132 1.01999 9.75174 1.33901 10.0311C1.65867 10.3109 2.10312 10.382 2.49877 10.2188L11.9065 6.33654C12.3348 6.15979 12.6047 5.76348 12.6107 5.30228C12.6167 4.84108 12.3573 4.44475 11.9336 4.26802Z" fill="#D2973F"/>
</svg>
