<svg width="25" height="25" viewBox="0 0 25 25" fill="none" xmlns="http://www.w3.org/2000/svg">
<g opacity="0.4">
<path fill-rule="evenodd" clip-rule="evenodd" d="M12.6747 14.859C14.0564 14.859 15.1911 13.739 15.2092 12.3575C15.2272 10.976 14.1219 9.85607 12.7402 9.85607C11.3586 9.85607 10.2239 10.976 10.2058 12.3575C10.1877 13.739 11.2931 14.859 12.6747 14.859ZM16.7102 12.3575C16.6812 14.5679 14.8657 16.3598 12.6551 16.3598C10.4445 16.3598 8.67588 14.5679 8.70482 12.3575C8.73375 10.1471 10.5493 8.35519 12.7599 8.35519C14.9705 8.35519 16.7391 10.1471 16.7102 12.3575Z" fill="black"/>
<path fill-rule="evenodd" clip-rule="evenodd" d="M11.7313 3.19464L11.3283 4.3579C10.9885 5.33875 10.2619 6.03357 9.50479 6.45204C9.44024 6.48772 9.3763 6.52442 9.313 6.56212C8.56809 7.00578 7.60261 7.28051 6.59111 7.07298L5.39184 6.82693C5.18143 6.78377 4.96524 6.88043 4.85513 7.0669L4.21969 8.14302C4.10958 8.3295 4.13025 8.56395 4.27102 8.72505L5.07449 9.64464C5.74884 10.4164 5.98128 11.3837 5.95634 12.2455C5.95418 12.3201 5.95321 12.3947 5.95341 12.4692C5.95578 13.3311 5.69802 14.2983 5.00346 15.0701L4.17592 15.9897C4.03093 16.1508 4.00412 16.3853 4.10935 16.5717L4.71661 17.6478C4.82184 17.8343 5.03551 17.931 5.24704 17.8878L6.45267 17.6418C7.46962 17.4343 8.42792 17.709 9.16122 18.1527C9.22355 18.1904 9.28654 18.2271 9.35018 18.2628C10.0963 18.6813 10.8047 19.3761 11.1189 20.3569L11.4914 21.5202C11.5568 21.7245 11.7462 21.8622 11.9616 21.8622H13.2043C13.4196 21.8622 13.6126 21.7245 13.6834 21.5202L14.0864 20.3569C14.4262 19.3761 15.1528 18.6813 15.9099 18.2628C15.9745 18.2271 16.0384 18.1904 16.1017 18.1527C16.8466 17.709 17.8121 17.4343 18.8237 17.6418L20.0228 17.8878C20.2332 17.931 20.4494 17.8343 20.5595 17.6478L21.195 16.5717C21.3051 16.3853 21.2844 16.1508 21.1436 15.9897L20.3402 15.0702C19.6659 14.2984 19.4334 13.3311 19.4584 12.4693C19.4605 12.3947 19.4615 12.3201 19.4613 12.2455C19.4589 11.3836 19.7167 10.4164 20.4112 9.64458L21.2387 8.72505C21.3837 8.56395 21.4105 8.3295 21.3053 8.14302L20.698 7.06691C20.5928 6.88043 20.3791 6.78377 20.1676 6.82694L18.9619 7.07298C17.945 7.2805 16.9867 7.00577 16.2534 6.56212C16.1911 6.52442 16.1281 6.48772 16.0645 6.45204C15.3184 6.03357 14.61 5.33875 14.2958 4.3579L13.9233 3.19464C13.8578 2.99037 13.6685 2.85258 13.4531 2.85258L12.2104 2.85258C11.9951 2.85258 11.8021 2.99037 11.7313 3.19464ZM9.91065 3.88331C9.72114 4.43032 9.29929 4.86033 8.7918 5.14083C8.71287 5.18446 8.63471 5.22933 8.55734 5.27541C8.05846 5.57254 7.47535 5.71842 6.91125 5.60269L5.71198 5.35664C4.87036 5.18397 4.00559 5.57062 3.56514 6.31652L2.9297 7.39264C2.48925 8.13855 2.57195 9.07634 3.13501 9.72076L3.93848 10.6403C4.31498 11.0713 4.47261 11.6459 4.45595 12.2218C4.45334 12.3122 4.45215 12.4026 4.4524 12.493C4.45398 13.0689 4.28131 13.6435 3.89353 14.0744L3.06598 14.994C2.48605 15.6384 2.3788 16.5762 2.79972 17.3221L3.40698 18.3982C3.8279 19.1441 4.68255 19.5308 5.52869 19.3581L6.73432 19.1121C7.30146 18.9963 7.88075 19.1422 8.37186 19.4394C8.44804 19.4855 8.52505 19.5303 8.60286 19.574C9.103 19.8545 9.5136 20.2845 9.68879 20.8315L10.0613 21.9948C10.323 22.8119 11.0806 23.363 11.9419 23.363H13.1846C14.046 23.363 14.8179 22.8119 15.101 21.9948L15.504 20.8315C15.6936 20.2845 16.1154 19.8545 16.6229 19.574C16.7018 19.5303 16.78 19.4855 16.8574 19.4394C17.3563 19.1422 17.9394 18.9964 18.5035 19.1121L19.7027 19.3581C20.5443 19.5308 21.4091 19.1441 21.8495 18.3982L22.4849 17.3221C22.9254 16.5762 22.8427 15.6384 22.2796 14.994L21.4762 14.0745C21.0997 13.6436 20.9421 13.0689 20.9587 12.4931C20.9614 12.4026 20.9625 12.3121 20.9623 12.2217C20.9607 11.6459 21.1334 11.0712 21.5212 10.6403L22.3487 9.72076C22.9286 9.07634 23.0358 8.13855 22.6149 7.39264L22.0077 6.31653C21.5867 5.57062 20.7321 5.18397 19.886 5.35664L18.6803 5.60268C18.1132 5.71842 17.5339 5.57253 17.0428 5.2754C16.9666 5.22933 16.8896 5.18446 16.8118 5.14083C16.3117 4.86033 15.9011 4.43032 15.7259 3.88331L15.3533 2.72006C15.0917 1.90296 14.3341 1.35182 13.4728 1.35182L12.2301 1.35182C11.3687 1.35182 10.5967 1.90296 10.3137 2.72006L9.91065 3.88331Z" fill="black"/>
</g>
</svg>
