<svg width="13" height="20" viewBox="0 0 13 20" fill="none" xmlns="http://www.w3.org/2000/svg">
<path fill-rule="evenodd" clip-rule="evenodd" d="M9.73064 9.18246C9.58218 9.32899 9.34458 9.32899 9.19996 9.18246L6.33952 6.28433C6.29131 6.23548 6.21211 6.23548 6.16262 6.28433L3.2263 9.18246C3.07784 9.32899 2.84025 9.32899 2.69562 9.18246C2.55099 9.03593 2.5541 8.79835 2.70257 8.65182L5.63888 5.75369C5.9853 5.41178 6.53969 5.41178 6.87715 5.75369L9.73759 8.65182C9.88221 8.79835 9.8791 9.03593 9.73064 9.18246Z" fill="black"/>
<path fill-rule="evenodd" clip-rule="evenodd" d="M9.70921 10.8068C9.56458 10.6603 9.32699 10.6603 9.17853 10.8068L6.24221 13.7049C6.19272 13.7538 6.11352 13.7538 6.06531 13.7049L3.20487 10.8068C3.06025 10.6603 2.82265 10.6603 2.67419 10.8068C2.52572 10.9533 2.52261 11.1909 2.66724 11.3374L5.52768 14.2356C5.86514 14.5775 6.41953 14.5775 6.76594 14.2356L9.70226 11.3374C9.85073 11.1909 9.85384 10.9533 9.70921 10.8068Z" fill="black"/>
</svg>
