<svg width="25" height="25" viewBox="0 0 25 25" fill="none" xmlns="http://www.w3.org/2000/svg">
<g opacity="0.4">
<path fill-rule="evenodd" clip-rule="evenodd" d="M20.5868 6.47865L20.6045 5.12444C20.6244 3.60489 19.4086 2.37305 17.8889 2.37305L5.88176 2.37305C4.36207 2.37305 3.114 3.60489 3.09411 5.12444L2.91075 19.1316C2.89085 20.6511 4.10668 21.883 5.62636 21.883H19.6347C21.1544 21.883 22.4024 20.6511 22.4223 19.1316L22.5533 9.12648C22.5698 7.86706 21.7374 6.80528 20.5868 6.47865ZM4.595 5.12444C4.60404 4.43374 5.17135 3.87381 5.86211 3.87381L17.8692 3.87381C18.56 3.87381 19.1127 4.43374 19.1036 5.12444L19.0872 6.37508L5.82937 6.37508C5.1386 6.37508 4.58596 5.81515 4.595 5.12444ZM4.56291 7.57583C4.93566 7.76765 5.35935 7.87584 5.80972 7.87584L19.818 7.87584C20.5088 7.87584 21.0614 8.43577 21.0524 9.12648L21.0262 11.1275L17.5241 11.1275C15.8663 11.1275 14.5048 12.4713 14.4831 14.129C14.4614 15.7867 15.7877 17.1305 17.4456 17.1305L20.9476 17.1305L20.9214 19.1316C20.9124 19.8223 20.3451 20.3822 19.6543 20.3822H5.64601C4.95524 20.3822 4.4026 19.8223 4.41164 19.1316L4.56291 7.57583ZM17.5045 12.6283L21.0066 12.6283L20.9673 15.6298L17.4652 15.6298C16.6363 15.6298 15.9731 14.9579 15.984 14.129C15.9948 13.3002 16.6756 12.6283 17.5045 12.6283Z" fill="black"/>
</g>
</svg>
